<?xml version="1.0" encoding="utf-8"?>
<!-- Generator: Adobe Illustrator 20.1.0, SVG Export Plug-In . SVG Version: 6.00 Build 0)  -->
<svg version="1.1" id="Capa_1" xmlns="http://www.w3.org/2000/svg" xmlns:xlink="http://www.w3.org/1999/xlink" x="0px" y="0px"
	 viewBox="0 0 520.2 520.2" style="enable-background:new 0 0 520.2 520.2;" xml:space="preserve">
<style type="text/css">
	.st0{fill:#DE0029;}
	.st1{fill:#FFFFFF;}
</style>
<g>
	<g>
		<rect x="48.6" y="48.6" class="st0" width="422.9" height="422.9"/>
		<g>
			<polygon class="st1" points="128.1,191.1 119.6,217.8 91.6,218.1 114.3,234.3 106.1,260.4 128.1,244.4 150.5,260.1 141.9,234 
				164.3,217.4 136.8,217.8 			"/>
			<polygon class="st1" points="216.2,191.1 207.7,217.8 179.7,218.1 202.4,234.3 194.2,260.4 216.2,244.4 238.5,260.1 230,234 
				252.4,217.4 224.8,217.8 			"/>
			<polygon class="st1" points="304.6,191.1 296.1,217.8 268.1,218.1 290.9,234.3 282.7,260.4 304.6,244.4 327,260.1 318.5,234 
				340.8,217.4 313.4,217.8 			"/>
			<polygon class="st1" points="260.2,251.9 251.7,278.6 223.7,278.9 246.3,295.1 238.1,321.2 260.2,305.2 282.5,320.9 274,294.8 
				296.3,278.2 268.8,278.6 			"/>
			<polygon class="st1" points="172,251.9 163.4,278.6 135.5,278.9 158.1,295.1 149.9,321.2 172,305.2 194.2,320.9 185.7,294.8 
				208.1,278.2 180.6,278.6 			"/>
			<polygon class="st1" points="348.7,251.9 340.2,278.6 312.3,278.9 334.9,295.1 326.8,321.2 348.7,305.2 371.1,320.9 362.6,294.8 
				384.9,278.2 357.5,278.6 			"/>
			<polygon class="st1" points="393,191.1 384.5,217.8 356.5,218.1 379.2,234.3 371,260.4 393,244.4 415.3,260.1 406.8,234 
				429.1,217.4 401.7,217.8 			"/>
		</g>
	</g>
</g>
</svg>
